<?xml version="1.0" encoding="UTF-8"?>
<svg version="1.1" xmlns="http://www.w3.org/2000/svg" width="512" height="512">
<path d="M0 0 C168.96 0 337.92 0 512 0 C512 168.96 512 337.92 512 512 C343.04 512 174.08 512 0 512 C0 343.04 0 174.08 0 0 Z " fill="#009C9D" transform="translate(0,0)"/>
<path d="M0 0 C0.78342773 0.12358887 1.56685547 0.24717773 2.37402344 0.37451172 C19.16916747 3.12262632 34.70960792 8.54378634 50 16 C50 16.66 50 17.32 50 18 C50.8765625 18.25910156 51.753125 18.51820312 52.65625 18.78515625 C58.37184687 20.86173409 63.09185223 24.47065804 68 28 C68.82081055 28.58998779 68.82081055 28.58998779 69.65820312 29.19189453 C100.06280435 51.37302905 119.97317459 82.12018768 128 119 C128.77222567 124.31871757 128.98499194 129.62711323 129 135 C129.66 135 130.32 135 131 135 C132.44155953 181.16095401 121.36670178 224.00692412 89.33984375 258.58203125 C85.71221958 262.3307781 82.01551173 266.00593439 78.28515625 269.65234375 C71.57232539 276.5487734 72.86462536 286.17472885 72.7890625 295.27734375 C72.76104072 297.19076445 72.73237673 299.10417583 72.703125 301.01757812 C72.66163083 303.99552605 72.62468689 306.97329034 72.59863281 309.95141602 C72.57114066 312.85207522 72.52533522 315.75197499 72.4765625 318.65234375 C72.47330963 319.54606186 72.47005676 320.43977997 72.46670532 321.36058044 C72.45013885 322.18896927 72.43357239 323.01735809 72.41650391 323.87084961 C72.40437363 324.96144936 72.40437363 324.96144936 72.39199829 326.07408142 C71.88188845 328.58029137 71.02640672 329.47359852 69 331 C63.62434049 331.62170464 60.46148848 330.60731122 55.859375 327.88671875 C55.29897018 327.56088806 54.73856537 327.23505737 54.16117859 326.89935303 C52.96677662 326.20222444 51.77638425 325.49818693 50.58981323 324.78781128 C48.73016278 323.67563623 46.85937965 322.58477417 44.98461914 321.49829102 C39.37533382 318.23653565 33.81749914 314.90746705 28.32421875 311.453125 C19.27461532 305.3547935 19.27461532 305.3547935 8.8125 303.75 C7.20032224 304.13450577 5.59639779 304.55449364 4 305 C-1.55133466 305.81095741 -6.96850462 306.18123315 -12.57421875 306.23828125 C-13.3719873 306.24812042 -14.16975586 306.25795959 -14.99169922 306.26809692 C-48.48207728 306.59631434 -48.48207728 306.59631434 -64 302 C-64.81839355 301.76394043 -65.63678711 301.52788086 -66.47998047 301.28466797 C-101.79048478 290.78695047 -132.11070967 267.14562257 -153 237 C-153.73476562 235.95199219 -153.73476562 235.95199219 -154.484375 234.8828125 C-162.19652848 223.62618444 -165.25198023 215.00680589 -164.98876953 201.42236328 C-165.00810891 197.25094285 -165.52574584 193.14000228 -166 189 C-166.89949576 180.40509215 -167.62675439 171.84757903 -167.89013672 163.20800781 C-167.9747721 160.73665474 -168.08013386 158.26951669 -168.19970703 155.79980469 C-168.38836889 151.80633834 -168.51618998 147.81379258 -168.61468506 143.81713867 C-168.6627908 142.20372115 -168.7282723 140.5907175 -168.81207275 138.97875977 C-169.46371317 126.00252788 -169.46371317 126.00252788 -165.85913086 121.07104492 C-163.34527548 118.82537098 -160.74934606 116.9422253 -158 115 C-152.73745152 109.28803278 -149.1562955 103.05404972 -146 96 C-145.63672607 95.24307861 -145.27345215 94.48615723 -144.89916992 93.70629883 C-142.45132472 87.99122446 -141.71427058 82.87364261 -141.8125 76.69140625 C-141.82165939 75.95247131 -141.83081879 75.21353638 -141.84025574 74.45220947 C-141.89239718 71.38383087 -141.96298081 68.31995103 -142.11279297 65.25463867 C-142.71465953 51.71552074 -142.71465953 51.71552074 -138.55395508 46.46508789 C-135.63506826 43.31098717 -132.38149397 40.63838697 -129 38 C-128.22833496 37.34153076 -127.45666992 36.68306152 -126.66162109 36.00463867 C-124.71560493 34.36716015 -122.72916868 32.82836838 -120.6875 31.3125 C-119.96949219 30.77343018 -119.25148437 30.23436035 -118.51171875 29.67895508 C-84.1228642 4.26192867 -42.35720863 -6.80373192 0 0 Z " fill="#FBFBFB" transform="translate(310,91)"/>
<path d="M0 0 C0.78342773 0.12358887 1.56685547 0.24717773 2.37402344 0.37451172 C19.16916747 3.12262632 34.70960792 8.54378634 50 16 C50 16.66 50 17.32 50 18 C50.8765625 18.25910156 51.753125 18.51820312 52.65625 18.78515625 C58.37184687 20.86173409 63.09185223 24.47065804 68 28 C68.82081055 28.58998779 68.82081055 28.58998779 69.65820312 29.19189453 C100.06280435 51.37302905 119.97317459 82.12018768 128 119 C128.77222567 124.31871757 128.98499194 129.62711323 129 135 C129.66 135 130.32 135 131 135 C132.44155953 181.16095401 121.36670178 224.00692412 89.33984375 258.58203125 C85.71221958 262.3307781 82.01551173 266.00593439 78.28515625 269.65234375 C71.57232539 276.5487734 72.86462536 286.17472885 72.7890625 295.27734375 C72.76104072 297.19076445 72.73237673 299.10417583 72.703125 301.01757812 C72.66163083 303.99552605 72.62468689 306.97329034 72.59863281 309.95141602 C72.57114066 312.85207522 72.52533522 315.75197499 72.4765625 318.65234375 C72.47330963 319.54606186 72.47005676 320.43977997 72.46670532 321.36058044 C72.45013885 322.18896927 72.43357239 323.01735809 72.41650391 323.87084961 C72.40437363 324.96144936 72.40437363 324.96144936 72.39199829 326.07408142 C71.88188845 328.58029137 71.02640672 329.47359852 69 331 C63.62434049 331.62170464 60.46148848 330.60731122 55.859375 327.88671875 C55.29897018 327.56088806 54.73856537 327.23505737 54.16117859 326.89935303 C52.96677662 326.20222444 51.77638425 325.49818693 50.58981323 324.78781128 C48.73016278 323.67563623 46.85937965 322.58477417 44.98461914 321.49829102 C39.37533382 318.23653565 33.81749914 314.90746705 28.32421875 311.453125 C19.27461532 305.3547935 19.27461532 305.3547935 8.8125 303.75 C7.20032224 304.13450577 5.59639779 304.55449364 4 305 C-1.55133466 305.81095741 -6.96850462 306.18123315 -12.57421875 306.23828125 C-13.3719873 306.24812042 -14.16975586 306.25795959 -14.99169922 306.26809692 C-48.48207728 306.59631434 -48.48207728 306.59631434 -64 302 C-64.81839355 301.76394043 -65.63678711 301.52788086 -66.47998047 301.28466797 C-101.79048478 290.78695047 -132.11070967 267.14562257 -153 237 C-153.73476562 235.95199219 -153.73476562 235.95199219 -154.484375 234.8828125 C-162.19652848 223.62618444 -165.25198023 215.00680589 -164.98876953 201.42236328 C-165.00810891 197.25094285 -165.52574584 193.14000228 -166 189 C-166.89949576 180.40509215 -167.62675439 171.84757903 -167.89013672 163.20800781 C-167.9747721 160.73665474 -168.08013386 158.26951669 -168.19970703 155.79980469 C-168.38836889 151.80633834 -168.51618998 147.81379258 -168.61468506 143.81713867 C-168.6627908 142.20372115 -168.7282723 140.5907175 -168.81207275 138.97875977 C-169.46371317 126.00252788 -169.46371317 126.00252788 -165.85913086 121.07104492 C-163.34527548 118.82537098 -160.74934606 116.9422253 -158 115 C-152.73745152 109.28803278 -149.1562955 103.05404972 -146 96 C-145.63672607 95.24307861 -145.27345215 94.48615723 -144.89916992 93.70629883 C-142.45132472 87.99122446 -141.71427058 82.87364261 -141.8125 76.69140625 C-141.82165939 75.95247131 -141.83081879 75.21353638 -141.84025574 74.45220947 C-141.89239718 71.38383087 -141.96298081 68.31995103 -142.11279297 65.25463867 C-142.71465953 51.71552074 -142.71465953 51.71552074 -138.55395508 46.46508789 C-135.63506826 43.31098717 -132.38149397 40.63838697 -129 38 C-128.22833496 37.34153076 -127.45666992 36.68306152 -126.66162109 36.00463867 C-124.71560493 34.36716015 -122.72916868 32.82836838 -120.6875 31.3125 C-119.96949219 30.77343018 -119.25148437 30.23436035 -118.51171875 29.67895508 C-84.1228642 4.26192867 -42.35720863 -6.80373192 0 0 Z M-58 45 C-58.83950195 45.27344238 -59.67900391 45.54688477 -60.54394531 45.82861328 C-88.5806954 55.28660057 -111.67368619 75.80161777 -125.10498047 102.13037109 C-127.86459746 107.89500473 -130.11559739 113.89599759 -132 120 C-132.27070313 120.85674316 -132.54140625 121.71348633 -132.8203125 122.59619141 C-135.24392939 131.08890106 -135.47118992 139.36572872 -135.375 148.125 C-135.3713443 148.85067169 -135.3676886 149.57634338 -135.36392212 150.32400513 C-135.29817894 161.448394 -134.62705806 172.16031653 -132 183 C-131.80664062 183.90105469 -131.61328125 184.80210937 -131.4140625 185.73046875 C-126.75192504 204.28819773 -114.1674203 220.6397917 -101 234 C-100.29488281 234.71800781 -99.58976562 235.43601562 -98.86328125 236.17578125 C-92.07560957 242.62730157 -84.03119678 247.27805375 -76 252 C-75.14664063 252.51820313 -74.29328125 253.03640625 -73.4140625 253.5703125 C-65.9727227 257.72179681 -57.54040929 259.50648839 -49.30395508 261.44750977 C-47.84123772 261.79827054 -46.38403529 262.17364769 -44.9362793 262.58178711 C-37.67591119 264.50082339 -30.40106883 264.25677592 -22.9375 264.1875 C-21.6009121 264.1860396 -20.26432307 264.18538362 -18.92773438 264.18554688 C-8.93465672 264.14051047 -0.38467569 263.47954899 9 260 C10.00289062 259.63777344 11.00578125 259.27554688 12.0390625 258.90234375 C42.51677958 247.59140102 64.7122279 227.958762 78.6875 198.5625 C89.45604701 173.7511856 92.28108434 145.01075015 84 119 C83.63174914 117.71161125 83.26587197 116.42254174 82.90234375 115.1328125 C78.84696745 101.68820904 72.18610124 90.59124101 63 80 C62.33613281 79.19175781 61.67226563 78.38351563 60.98828125 77.55078125 C51.27231529 66.11072521 39.22769003 57.87274998 26 51 C25.08863281 50.51789063 24.17726563 50.03578125 23.23828125 49.5390625 C-1.23764734 37.46573449 -32.4238454 36.63298658 -58 45 Z " fill="#F8FBFB" transform="translate(310,91)"/>
<path d="M0 0 C3.0047176 0.73243596 4.11776365 2.09401305 6.03515625 4.49609375 C6.51617432 7.52069092 6.51617432 7.52069092 6.48925781 11.10058594 C6.48984192 11.75465927 6.49042603 12.4087326 6.49102783 13.08262634 C6.48824924 15.23662069 6.45717173 17.38921731 6.42578125 19.54296875 C6.41831797 21.03940068 6.41262544 22.53584239 6.40863037 24.0322876 C6.39338064 27.96493665 6.35410537 31.89699182 6.30981445 35.82940674 C6.26884699 39.84452277 6.25061626 43.85973506 6.23046875 47.875 C6.18760973 55.74897001 6.11936728 63.62245794 6.03515625 71.49609375 C8.368104 71.53851098 10.70218192 71.53702312 13.03515625 71.49609375 C15.17322717 69.35802283 14.27122728 64.51395853 14.31640625 61.546875 C14.33427185 60.63000412 14.35213745 59.71313324 14.37054443 58.76847839 C14.40875659 56.80157936 14.44504304 54.83464218 14.47961426 52.86767578 C14.55325928 48.81153456 14.64402202 44.75584448 14.73419189 40.70004272 C14.94168634 31.51140869 14.94168634 31.51140869 15.09570312 22.32177734 C15.13906438 19.21234195 15.20745906 16.10481394 15.28515625 12.99609375 C15.28708984 12.15216064 15.28902344 11.30822754 15.29101562 10.4387207 C15.41319176 6.57324951 15.69482758 4.85670691 18.39453125 1.99609375 C21.65207303 0.14565582 23.34270537 -0.11931473 27.03515625 0.49609375 C29.68066406 1.93383789 29.68066406 1.93383789 32.03515625 4.49609375 C32.78841799 7.65356343 32.73249778 10.75813785 32.70703125 13.9921875 C32.71978088 14.93554459 32.73253052 15.87890167 32.7456665 16.85084534 C32.78197389 19.87872865 32.78467357 22.90551255 32.78515625 25.93359375 C32.80700461 28.88870586 32.83587847 31.84369185 32.86535645 34.79873657 C32.8847811 36.75849336 32.9019582 38.71827374 32.91687012 40.67807007 C32.97929795 47.59439749 33.17581747 54.49672205 33.48828125 61.40625 C33.54577545 62.75945595 33.54577545 62.75945595 33.60443115 64.13999939 C33.42400017 68.14264934 33.42400017 68.14264934 35.03515625 71.49609375 C37.36813058 71.53702312 39.7022085 71.53851098 42.03515625 71.49609375 C42.0262738 70.66559509 42.01739136 69.83509644 42.00823975 68.97943115 C41.92808275 61.15174576 41.86718634 53.32419825 41.82790756 45.49619675 C41.80703492 41.47173298 41.7787239 37.4476084 41.73339844 33.42333984 C41.68992805 29.53945839 41.66601671 25.65590313 41.65564728 21.77179718 C41.64825794 20.29019282 41.63382807 18.80860626 41.61223602 17.32714081 C41.58318413 15.25123054 41.57920069 13.17666688 41.58105469 11.10058594 C41.57217224 9.91922058 41.56328979 8.73785522 41.55413818 7.52069092 C42.13322636 3.87943797 43.15593377 2.72137038 46.03515625 0.49609375 C48.03515625 -0.03515625 48.03515625 -0.03515625 50.03515625 -0.00390625 C50.69515625 -0.01421875 51.35515625 -0.02453125 52.03515625 -0.03515625 C55.04208078 0.76355808 56.10971506 2.05069915 58.03515625 4.49609375 C58.64426515 7.31472255 59.02693229 9.84214766 59.265625 12.69140625 C59.38675407 13.87438797 59.38675407 13.87438797 59.5103302 15.08126831 C59.76445462 17.59322455 59.99439999 20.106667 60.22265625 22.62109375 C60.46638751 25.14197136 60.71505535 27.66228487 60.96711731 30.18234253 C61.12218356 31.74876532 61.27152111 33.3157678 61.41459656 34.8833313 C61.73093481 38.81655971 61.73093481 38.81655971 63.03515625 42.49609375 C63.29985505 45.90776723 63.47930849 49.31294871 63.640625 52.73046875 C63.77203579 56.74360978 63.77203579 56.74360978 65.03515625 60.49609375 C66.21302243 74.68410115 66.86617994 89.9527305 57.27416992 101.34936523 C52.96146867 106.1388772 48.28810326 110.13760173 42.71484375 113.41015625 C40.87127141 114.40026568 40.87127141 114.40026568 40.03515625 116.49609375 C39.81437471 119.7607445 39.89666676 123.03739136 39.91015625 126.30859375 C39.90628906 127.17291016 39.90242188 128.03722656 39.8984375 128.92773438 C39.90738156 135.28249185 40.17222873 141.61012547 40.49633789 147.95458984 C41.07001515 159.6169302 41.44487836 171.28208266 41.7890625 182.953125 C41.85486681 185.1557371 41.92069896 187.35834837 41.98655701 189.56095886 C42.12322503 194.15021794 42.25825667 198.73952196 42.39233398 203.32885742 C42.52795277 207.9624181 42.66667358 212.59586866 42.80834961 217.22924805 C43.26905682 232.31708525 43.68687265 247.40522653 44.03515625 262.49609375 C44.05649376 263.38091179 44.07783127 264.26572983 44.09981537 265.17736053 C44.21086213 269.84186607 44.30142155 274.50558365 44.35017204 279.17117882 C44.37394447 281.10925898 44.41658385 283.04708008 44.46009827 284.9848175 C44.49515164 292.47756671 43.80646208 299.27590928 38.62266541 305.07670593 C32.9373636 310.13524393 27.41533428 311.01094943 20.046875 310.875 C13.89323322 310.10080642 10.32810873 307.15372514 6.59765625 302.37109375 C4.07609378 297.73141881 3.95442409 294.57096438 4.10351562 289.34277344 C4.12300262 288.60660545 4.14248962 287.87043747 4.16256714 287.11196136 C4.22955019 284.63045999 4.30426592 282.14925076 4.37890625 279.66796875 C4.42857808 277.88703718 4.4777597 276.10609188 4.52648926 274.32513428 C4.63347829 270.44949382 4.74380152 266.57396649 4.85644531 262.69848633 C5.04052849 256.34931661 5.21419937 249.99988355 5.38671875 243.65039062 C5.66383055 233.48570739 5.9486885 223.32126324 6.23884583 213.15694427 C6.40553169 207.31724849 6.57087068 201.47752206 6.73291016 195.63769531 C6.89324004 189.85971424 7.05679819 184.081833 7.22267151 178.30400848 C7.28437093 176.13691062 7.34497746 173.96978132 7.40440369 171.80261993 C7.94966091 151.97605964 7.94966091 151.97605964 8.82223511 142.76922607 C9.28271887 137.85313129 9.30116991 132.92984433 9.34765625 127.99609375 C9.39116211 126.41054687 9.39116211 126.41054687 9.43554688 124.79296875 C9.44392578 123.7771875 9.45230469 122.76140625 9.4609375 121.71484375 C9.47552002 120.80669922 9.49010254 119.89855469 9.50512695 118.96289062 C8.64245693 114.43488133 4.80795403 112.2173989 1.22265625 109.68359375 C-7.90559203 102.85857694 -13.31201906 95.45456781 -16.96484375 84.49609375 C-17.71526449 70.26299083 -16.31462024 56.3333553 -14.51123047 42.22924805 C-14.08650494 38.90748097 -13.67851455 35.58398095 -13.2734375 32.25976562 C-13.00746038 30.10795528 -12.74056631 27.95625804 -12.47265625 25.8046875 C-12.35173615 24.83051376 -12.23081604 23.85634003 -12.10623169 22.85264587 C-11.74857398 20.06333304 -11.36599809 17.27947312 -10.96484375 14.49609375 C-10.82173767 13.491763 -10.67863159 12.48743225 -10.53118896 11.45266724 C-10.37507141 10.47063324 -10.21895386 9.48859924 -10.05810547 8.47680664 C-9.85228348 7.15067101 -9.85228348 7.15067101 -9.64230347 5.79774475 C-8.08543321 0.50832032 -5.24104704 0.15147535 0 0 Z " fill="#F6FBFB" transform="translate(87.96484375,89.50390625)"/>
<path d="M0 0 C1.0725 0.18175781 2.145 0.36351562 3.25 0.55078125 C29.28178662 5.86560435 53.21658564 25.29245314 67.640625 46.90234375 C68.5365234 48.28566145 69.42720487 49.67237255 70.3125 51.0625 C70.72121338 51.69881348 71.12992676 52.33512695 71.55102539 52.99072266 C84.20828264 73.45367897 86.31420193 97.5465501 85 121 C84.9376416 122.14082031 84.9376416 122.14082031 84.87402344 123.3046875 C83.16962915 148.45397206 68.61589232 175.47803701 50 192 C37.41966171 202.46998245 24.35639039 210.31378941 9 216 C8.09894531 216.36222656 7.19789063 216.72445312 6.26953125 217.09765625 C-13.5045295 224.95963221 -39.99367003 222.78754073 -59.91992188 216.640625 C-61.74061897 216.07988449 -63.58027575 215.58147948 -65.421875 215.09375 C-92.41900314 207.38028482 -113.92680799 183.96741989 -127.30200195 160.3125 C-139.91075821 136.8809303 -142.88217709 102.49151848 -135.25 77 C-126.25616655 48.49987346 -106.8478646 24.96658164 -81 10 C-76.74878204 8.01423371 -72.44625522 6.48208507 -68 5 C-66.41288853 4.32126744 -64.82934494 3.63411342 -63.25 2.9375 C-42.41829798 -5.25474237 -21.63071473 -4.07078034 0 0 Z M-64 20 C-64 20.66 -64 21.32 -64 22 C-64.84304687 22.08507812 -65.68609375 22.17015625 -66.5546875 22.2578125 C-70.56143743 23.12094457 -73.67073591 24.76110924 -77.125 26.875 C-77.77662109 27.27066162 -78.42824219 27.66632324 -79.09960938 28.07397461 C-85.81824301 32.29606231 -91.43959315 37.37209201 -97 43 C-97.65355469 43.64324219 -98.30710937 44.28648437 -98.98046875 44.94921875 C-106.72554539 53.11965429 -112.70445671 63.78591928 -116.16796875 74.4453125 C-117.27763219 77.85244813 -118.67277741 81.12047893 -120.0703125 84.41796875 C-122.96191868 92.44885817 -123.27858924 99.57202367 -123.1875 108.0625 C-123.18685547 109.20783203 -123.18621094 110.35316406 -123.18554688 111.53320312 C-123.1564663 117.11990476 -122.99802861 122.49886629 -122 128 C-121.34 128 -120.68 128 -120 128 C-120.103125 129.0725 -120.20625 130.145 -120.3125 131.25 C-120.28000675 137.43454813 -117.63325225 142.51512824 -115 148 C-114.72124023 148.59264648 -114.44248047 149.18529297 -114.15527344 149.79589844 C-109.39435478 159.79751825 -103.50566196 167.88457229 -96 176 C-95.34386719 176.73734375 -94.68773437 177.4746875 -94.01171875 178.234375 C-84.63123594 188.27771848 -72.93590371 195.54509996 -60 200 C-58.99453125 200.36182373 -58.99453125 200.36182373 -57.96875 200.73095703 C-37.27706213 207.95307879 -12.27760912 207.81333403 8 199.3125 C8.86375244 198.95510742 9.72750488 198.59771484 10.61743164 198.22949219 C35.50629661 187.7151071 53.2598699 168.30594187 63.875 143.5 C64.16133301 142.8488623 64.44766602 142.19772461 64.74267578 141.52685547 C72.66977627 122.04515993 72.07555731 93.20850016 64.07226562 73.74365234 C52.9543959 49.20492558 33.55699009 29.32901189 8.234375 19.77441406 C-17.03274508 11.01705994 -38.83595987 11.45221494 -64 20 Z " fill="#049D9E" transform="translate(313,134)"/>
<path d="M0 0 C0 0.66 0 1.32 0 2 C0.804375 2.04125 1.60875 2.0825 2.4375 2.125 C9.98435533 3.97861359 15.46976382 8.86226066 20 15 C23.36602602 13.55313358 25.43814568 11.72022925 27.9375 9.0625 C32.63388809 4.27062158 36.18680354 1.6193815 43 1 C44.30130859 0.86851562 44.30130859 0.86851562 45.62890625 0.734375 C54.10936031 0.2478822 59.84985963 2.56967529 67 7 C67.63035156 7.38285156 68.26070313 7.76570312 68.91015625 8.16015625 C74.37014302 12.05615704 76.94403677 18.83211032 79 25 C80.00391093 38.98304515 78.75333352 49.31958821 69.75 60.625 C68.18246783 62.43050735 66.59922355 64.22250235 65 66 C64.27554688 66.83273437 63.55109375 67.66546875 62.8046875 68.5234375 C53.07188106 79.58185915 42.80750927 89.24132752 31 98 C30.0925 98.67933594 29.185 99.35867188 28.25 100.05859375 C22.65450546 104.04354298 22.65450546 104.04354298 20.12109375 103.875 C-1.43430035 94.98290372 -27.60752498 68.27504806 -37 47 C-39.98612577 38.118684 -38.67383236 26.44981443 -35 18 C-31.93201023 12.10001968 -27.1022567 8.127471 -22 4 C-21.20142578 3.30777344 -21.20142578 3.30777344 -20.38671875 2.6015625 C-14.62754698 -1.59504329 -6.77691472 -0.31398833 0 0 Z " fill="#FE5440" transform="translate(266,197)"/>
</svg>
