<?xml version="1.0" encoding="UTF-8"?>
<!DOCTYPE svg PUBLIC "-//W3C//DTD SVG 1.1//EN" "http://www.w3.org/Graphics/SVG/1.1/DTD/svg11.dtd">
<svg xmlns="http://www.w3.org/2000/svg" version="1.1" width="512px" height="512px" style="shape-rendering:geometricPrecision; text-rendering:geometricPrecision; image-rendering:optimizeQuality; fill-rule:evenodd; clip-rule:evenodd" xmlns:xlink="http://www.w3.org/1999/xlink">
<g><path style="opacity:1" fill="#019c9d" d="M -0.5,-0.5 C 170.167,-0.5 340.833,-0.5 511.5,-0.5C 511.5,170.167 511.5,340.833 511.5,511.5C 340.833,511.5 170.167,511.5 -0.5,511.5C -0.5,340.833 -0.5,170.167 -0.5,-0.5 Z"/></g>
<g><path style="opacity:1" fill="#f9fcfb" d="M 311.5,395.5 C 298.183,396.306 284.85,396.639 271.5,396.5C 240.302,393.227 212.635,381.727 188.5,362C 179.303,353.137 170.469,343.97 162,334.5C 155.897,325.963 150.564,316.963 146,307.5C 144.286,280.511 142.786,253.511 141.5,226.5C 141.833,222.5 142.167,218.5 142.5,214.5C 156.514,203.957 165.014,189.957 168,172.5C 168.333,161.833 168.667,151.167 169,140.5C 215.65,92.9626 271.15,78.4626 335.5,97C 406.426,124.309 441.26,176.142 440,252.5C 437.246,284.779 426.246,313.779 407,339.5C 397.528,347.963 389.194,357.297 382,367.5C 381.973,384.924 381.306,402.258 380,419.5C 377.503,421.478 374.669,421.978 371.5,421C 355.996,411.747 340.33,402.747 324.5,394C 320.109,393.842 315.776,394.342 311.5,395.5 Z"/></g>
<g><path style="opacity:1" fill="#f7fcfc" d="M 80.5,90.5 C 83.8499,90.335 87.1832,90.5017 90.5,91C 91.3333,91.8333 92.1667,92.6667 93,93.5C 92.8487,116.228 93.682,138.728 95.5,161C 98.1396,161.839 100.473,161.339 102.5,159.5C 103.333,137.841 103.833,116.174 104,94.5C 104.465,93.0692 105.299,91.9025 106.5,91C 109.833,90.3333 113.167,90.3333 116.5,91C 117.333,91.8333 118.167,92.6667 119,93.5C 119.232,115.515 119.898,137.515 121,159.5C 123.209,161.706 125.709,162.04 128.5,160.5C 129.333,138.174 129.833,115.841 130,93.5C 131.863,91.051 134.363,90.051 137.5,90.5C 140.637,90.051 143.137,91.051 145,93.5C 149.097,119.704 151.431,146.037 152,172.5C 148.88,186.619 140.88,196.953 128,203.5C 126.994,205.534 126.494,207.7 126.5,210C 128.666,267.825 130.166,325.658 131,383.5C 126.854,396.455 118.021,401.622 104.5,399C 98.1722,396.518 94.0055,392.018 92,385.5C 93.8885,325.507 95.5552,265.507 97,205.5C 96.5348,204.069 95.7014,202.903 94.5,202C 78.631,193.806 70.631,180.806 70.5,163C 73.0398,140.514 75.5398,118.014 78,95.5C 78.3661,93.5483 79.1995,91.8816 80.5,90.5 Z"/></g>
<g><path style="opacity:1" fill="#0c9d9e" d="M 397.5,228.5 C 397.635,240.185 397.302,251.852 396.5,263.5C 383.873,315.292 351.206,345.458 298.5,354C 250.218,357.943 213.385,339.443 188,298.5C 175.892,274.555 171.558,249.222 175,222.5C 185.866,175.301 214.699,145.467 261.5,133C 315.178,124.314 356.344,142.814 385,188.5C 390.878,201.301 395.045,214.635 397.5,228.5 Z"/></g>
<g><path style="opacity:1" fill="#fcfcfc" d="M 274.5,146.5 C 324.612,145.117 359.112,167.451 378,213.5C 388.732,258.491 375.899,294.991 339.5,323C 312.073,339.686 283.073,343.019 252.5,333C 207.728,312.816 186.895,277.982 190,228.5C 200.304,182.696 228.47,155.362 274.5,146.5 Z"/></g>
<g><path style="opacity:1" fill="#ff7e71" d="M 261.5,197.5 C 257.649,196.971 254.149,197.638 251,199.5C 250.329,198.748 249.496,198.414 248.5,198.5C 249.496,198.414 250.329,198.748 251,199.5C 254.149,197.638 257.649,196.971 261.5,197.5 Z"/></g>
<g><path style="opacity:1" fill="#ff533f" d="M 261.5,197.5 C 271.591,198.371 279.258,203.037 284.5,211.5C 285.053,213.552 286.053,213.885 287.5,212.5C 302.765,193.937 319.599,192.603 338,208.5C 347.614,225.99 346.281,242.656 334,258.5C 321.014,274.159 306.181,287.659 289.5,299C 287.956,300.187 286.289,300.52 284.5,300C 267.46,287.964 251.96,274.131 238,258.5C 235.607,254.946 233.44,251.28 231.5,247.5C 230.871,244.603 229.871,241.936 228.5,239.5C 228.5,238.833 228.5,238.167 228.5,237.5C 228.175,230.378 228.841,223.378 230.5,216.5C 234.167,208.167 240.167,202.167 248.5,198.5C 249.496,198.414 250.329,198.748 251,199.5C 254.149,197.638 257.649,196.971 261.5,197.5 Z"/></g>
<g><path style="opacity:1" fill="#ffa79e" d="M 284.5,211.5 C 285.391,212.11 286.391,212.443 287.5,212.5C 286.053,213.885 285.053,213.552 284.5,211.5 Z"/></g>
<g><path style="opacity:1" fill="#ff8e84" d="M 230.5,216.5 C 228.841,223.378 228.175,230.378 228.5,237.5C 227.35,232.684 227.184,227.684 228,222.5C 228.566,220.277 229.4,218.277 230.5,216.5 Z"/></g>
<g><path style="opacity:1" fill="#ffafa8" d="M 228.5,239.5 C 229.871,241.936 230.871,244.603 231.5,247.5C 229.345,245.383 228.345,242.716 228.5,239.5 Z"/></g>
<g><path style="opacity:1" fill="#b2dedd" d="M 397.5,228.5 C 398.166,232.988 398.499,237.654 398.5,242.5C 398.667,249.73 398.001,256.73 396.5,263.5C 397.302,251.852 397.635,240.185 397.5,228.5 Z"/></g>
<g><path style="opacity:1" fill="#60bdbe" d="M 311.5,395.5 C 310.048,396.302 308.382,396.802 306.5,397C 294.659,397.826 282.993,397.659 271.5,396.5C 284.85,396.639 298.183,396.306 311.5,395.5 Z"/></g>
</svg>
