<?xml version="1.0" encoding="UTF-8"?>
<!DOCTYPE svg PUBLIC "-//W3C//DTD SVG 1.1//EN" "http://www.w3.org/Graphics/SVG/1.1/DTD/svg11.dtd">
<svg xmlns="http://www.w3.org/2000/svg" version="1.1" width="440px" height="500px" style="shape-rendering:geometricPrecision; text-rendering:geometricPrecision; image-rendering:optimizeQuality; fill-rule:evenodd; clip-rule:evenodd" xmlns:xlink="http://www.w3.org/1999/xlink">
<g><path style="opacity:0.994" fill="#fcfdfd" d="M -0.5,178.5 C -0.5,175.167 -0.5,171.833 -0.5,168.5C 2.64453,147.353 5.47786,126.019 8,104.5C 9.1351,101.141 11.4684,99.808 15,100.5C 19.1243,99.893 21.7909,101.56 23,105.5C 22.6215,126.493 22.6215,147.493 23,168.5C 26.3388,171.299 29.3388,170.966 32,167.5C 32.3333,146.833 32.6667,126.167 33,105.5C 33.9894,101.745 36.4894,100.078 40.5,100.5C 43.9714,100.151 46.4714,101.484 48,104.5C 48.3333,125.5 48.6667,146.5 49,167.5C 51.5281,171.085 54.5281,171.418 58,168.5C 58.2103,147.163 58.2103,125.83 58,104.5C 59.6657,101.334 62.3323,100 66,100.5C 69.5316,99.808 71.8649,101.141 73,104.5C 76.0156,126.442 78.5156,148.442 80.5,170.5C 81.2061,188.593 73.5395,201.76 57.5,210C 56.7894,211.255 55.956,212.421 55,213.5C 56.5868,270.837 58.2535,328.17 60,385.5C 56.6929,398.909 48.1929,404.409 34.5,402C 27.1745,399.883 22.6745,395.049 21,387.5C 22.8613,329.828 24.8613,272.161 27,214.5C 26.2935,212.919 25.4601,211.419 24.5,210C 11.2506,203.302 2.91724,192.802 -0.5,178.5 Z"/></g>
<g><path style="opacity:0.994" fill="#fdfefd" d="M 200.5,99.5 C 255.565,97.9556 300.065,118.622 334,161.5C 365.101,209.324 369.768,259.657 348,312.5C 341.917,325.009 334.584,336.676 326,347.5C 318.635,354.53 311.635,361.864 305,369.5C 303.206,384.474 303.039,399.474 304.5,414.5C 304.284,424.273 299.95,426.773 291.5,422C 277.126,413.147 262.46,404.813 247.5,397C 181.314,408.97 127.814,388.47 87,335.5C 81.9071,328.32 77.5738,320.653 74,312.5C 71.4631,282.559 70.1298,252.559 70,222.5C 84.5491,211.737 93.2158,197.404 96,179.5C 96.0442,169.832 96.0442,160.165 96,150.5C 124.358,120.237 159.192,103.237 200.5,99.5 Z M 198.5,140.5 C 247.852,137.253 284.685,156.92 309,199.5C 327.801,242.629 323.134,282.962 295,320.5C 258.461,358.877 215.295,368.71 165.5,350C 118.646,325.476 97.4791,286.643 102,233.5C 107.914,198.477 126.081,171.977 156.5,154C 169.882,147.149 183.882,142.649 198.5,140.5 Z"/></g>
<g><path style="opacity:0.997" fill="#fdfdfd" d="M 206.5,155.5 C 250.336,156.479 281.169,176.812 299,216.5C 312.228,261.146 300.728,297.979 264.5,327C 232.488,347.032 199.488,348.699 165.5,332C 130.619,310.726 114.452,279.559 117,238.5C 126.839,189.158 156.672,161.491 206.5,155.5 Z"/></g>
<g><path style="opacity:1" fill="#f35642" d="M 178.5,204.5 C 192.925,203.461 203.759,209.128 211,221.5C 225.63,201.357 242.297,199.357 261,215.5C 270.895,230.405 270.895,245.405 261,260.5C 246.826,278.679 230.159,294.013 211,306.5C 192.488,294.325 176.155,279.658 162,262.5C 152.155,248.369 151.155,233.703 159,218.5C 164.062,211.729 170.562,207.062 178.5,204.5 Z"/></g>
</svg>
